# xmcd CD database file
#
# Track frame offsets:
#	150
#	13102
#	26657
#	40309
#
# Disc length: 691 seconds
#
# Revision: 3
# Processed by: cddbd v1.5.2PL0 Copyright (c) Steve Scherf et al.
# Submitted via: CDex 1.51
#
DISCID=2a02b104
DTITLE=Victoria Baillie - Victoria Baillie
DYEAR=2005
DGENRE=Country
TTITLE0=Lord, Don't Take Me Yet
TTITLE1=I Found A Letter
TTITLE2=Something Comin' On
TTITLE3=I Love You Honey
EXTD=YEAR: 2005
EXTT0=
EXTT1=
EXTT2=
EXTT3=
PLAYORDER=
